<svg width="307" height="179" viewBox="0 0 307 179" fill="none" xmlns="http://www.w3.org/2000/svg">
<path d="M79.0002 146.4C67.6669 146.4 57.1335 144.6 47.4002 141C37.8002 137.4 29.4669 132.333 22.4002 125.8C15.3335 119.133 9.8002 111.333 5.8002 102.4C1.93353 93.4666 0.000195518 83.7333 0.000195518 73.1999C0.000195518 62.5333 1.93353 52.7999 5.8002 43.9999C9.8002 35.0666 15.3335 27.3333 22.4002 20.7999C29.4669 14.1333 37.8002 8.99994 47.4002 5.39995C57.1335 1.79995 67.6669 -5.29289e-05 79.0002 -5.29289e-05C90.4669 -5.29289e-05 101 1.79995 110.6 5.39995C120.2 8.99994 128.534 14.1333 135.6 20.7999C142.667 27.3333 148.134 35.0666 152 43.9999C156 52.7999 158 62.5333 158 73.1999C158 83.7333 156 93.4666 152 102.4C148.134 111.333 142.667 119.133 135.6 125.8C128.534 132.333 120.2 137.4 110.6 141C101 144.6 90.4669 146.4 79.0002 146.4ZM124.8 178.6C118.267 178.6 112.2 177.933 106.6 176.6C101 175.4 95.5335 173.333 90.2002 170.4C85.0002 167.467 79.5335 163.4 73.8002 158.2C68.0669 153.133 61.6669 146.8 54.6002 139.2L103.4 127.2C106.6 132.133 109.334 135.933 111.6 138.6C113.867 141.267 116.067 143.133 118.2 144.2C120.467 145.267 123 145.8 125.8 145.8C132.734 145.8 139.2 142.8 145.2 136.8L165.6 160.8C155.6 172.667 142 178.6 124.8 178.6ZM79.0002 108.2C83.4002 108.2 87.4669 107.4 91.2002 105.8C95.0669 104.2 98.4002 101.933 101.2 98.9999C104.134 95.9333 106.4 92.2666 108 87.9999C109.6 83.5999 110.4 78.6666 110.4 73.1999C110.4 67.7333 109.6 62.8666 108 58.5999C106.4 54.1999 104.134 50.5333 101.2 47.5999C98.4002 44.5333 95.0669 42.1999 91.2002 40.5999C87.4669 38.9999 83.4002 38.1999 79.0002 38.1999C74.6002 38.1999 70.4669 38.9999 66.6002 40.5999C62.8669 42.1999 59.5335 44.5333 56.6002 47.5999C53.8002 50.5333 51.6002 54.1999 50.0002 58.5999C48.4002 62.8666 47.6002 67.7333 47.6002 73.1999C47.6002 78.6666 48.4002 83.5999 50.0002 87.9999C51.6002 92.2666 53.8002 95.9333 56.6002 98.9999C59.5335 101.933 62.8669 104.2 66.6002 105.8C70.4669 107.4 74.6002 108.2 79.0002 108.2ZM175.131 143.2V3.19994H242.531C255.598 3.19994 266.865 5.33328 276.331 9.59994C285.931 13.8666 293.331 19.9999 298.531 27.9999C303.731 35.8666 306.331 45.1999 306.331 55.9999C306.331 66.7999 303.731 76.1333 298.531 84C293.331 91.8666 285.931 97.9999 276.331 102.4C266.865 106.667 255.598 108.8 242.531 108.8H201.331L222.331 88.6V143.2H175.131ZM222.331 93.7999L201.331 72.4H239.531C246.065 72.4 250.865 70.9333 253.931 67.9999C257.131 65.0666 258.731 61.0666 258.731 55.9999C258.731 50.9333 257.131 46.9333 253.931 43.9999C250.865 41.0666 246.065 39.5999 239.531 39.5999H201.331L222.331 18.2V93.7999Z" fill="black"/>
</svg>
