<svg width="84" height="22" viewBox="0 0 84 22" fill="none" xmlns="http://www.w3.org/2000/svg">
<path d="M9.5749 18.1C8.20824 18.1 6.93324 17.875 5.7499 17.425C4.58324 16.975 3.56657 16.3417 2.6999 15.525C1.8499 14.7084 1.18324 13.75 0.699902 12.65C0.233236 11.55 -9.76361e-05 10.35 -9.76361e-05 9.05005C-9.76361e-05 7.75005 0.233236 6.55005 0.699902 5.45005C1.18324 4.35005 1.85824 3.39172 2.7249 2.57505C3.59157 1.75838 4.60824 1.12505 5.7749 0.675047C6.94157 0.225048 8.20824 4.85182e-05 9.5749 4.85182e-05C10.9582 4.85182e-05 12.2249 0.225048 13.3749 0.675047C14.5416 1.12505 15.5499 1.75838 16.3999 2.57505C17.2666 3.37505 17.9416 4.32505 18.4249 5.42505C18.9082 6.52505 19.1499 7.73338 19.1499 9.05005C19.1499 10.35 18.9082 11.5584 18.4249 12.675C17.9416 13.775 17.2666 14.7334 16.3999 15.55C15.5499 16.35 14.5416 16.975 13.3749 17.425C12.2249 17.875 10.9582 18.1 9.5749 18.1ZM15.2999 21.825C14.6166 21.825 13.9666 21.75 13.3499 21.6C12.7499 21.45 12.1499 21.2084 11.5499 20.875C10.9666 20.5417 10.3499 20.0917 9.6999 19.525C9.06657 18.9584 8.3749 18.2584 7.6249 17.425L11.8749 16.35C12.3249 16.9667 12.7416 17.4584 13.1249 17.825C13.5082 18.1917 13.8749 18.45 14.2249 18.6C14.5916 18.75 14.9749 18.825 15.3749 18.825C16.4416 18.825 17.3916 18.3917 18.2249 17.525L20.0249 19.675C18.8416 21.1084 17.2666 21.825 15.2999 21.825ZM9.5749 14.65C10.3582 14.65 11.0749 14.5167 11.7249 14.25C12.3916 13.9834 12.9749 13.6 13.4749 13.1C13.9749 12.6 14.3582 12.0084 14.6249 11.325C14.9082 10.625 15.0499 9.86671 15.0499 9.05005C15.0499 8.21672 14.9082 7.45838 14.6249 6.77505C14.3582 6.09171 13.9749 5.50005 13.4749 5.00005C12.9749 4.50005 12.3916 4.11671 11.7249 3.85005C11.0749 3.58338 10.3582 3.45005 9.5749 3.45005C8.79157 3.45005 8.06657 3.58338 7.3999 3.85005C6.73324 4.11671 6.1499 4.50005 5.6499 5.00005C5.16657 5.50005 4.78324 6.09171 4.4999 6.77505C4.23324 7.45838 4.0999 8.21672 4.0999 9.05005C4.0999 9.86671 4.23324 10.625 4.4999 11.325C4.78324 12.0084 5.16657 12.6 5.6499 13.1C6.1499 13.6 6.73324 13.9834 7.3999 14.25C8.06657 14.5167 8.79157 14.65 9.5749 14.65ZM22.1937 17.8V0.300048H29.7687C31.3353 0.300048 32.6853 0.558381 33.8187 1.07505C34.952 1.57505 35.827 2.30005 36.4437 3.25005C37.0603 4.20005 37.3687 5.33338 37.3687 6.65005C37.3687 7.95005 37.0603 9.07505 36.4437 10.025C35.827 10.975 34.952 11.7084 33.8187 12.225C32.6853 12.725 31.3353 12.975 29.7687 12.975H24.4437L26.2437 11.15V17.8H22.1937ZM26.2437 11.6L24.4437 9.67505H29.5437C30.7937 9.67505 31.727 9.40838 32.3437 8.87505C32.9603 8.34171 33.2687 7.60005 33.2687 6.65005C33.2687 5.68338 32.9603 4.93338 32.3437 4.40005C31.727 3.86672 30.7937 3.60005 29.5437 3.60005H24.4437L26.2437 1.67505V11.6ZM40.2601 17.8V0.300048H44.3101V17.8H40.2601ZM56.8382 18.1C55.4882 18.1 54.2299 17.8834 53.0632 17.45C51.9132 17 50.9132 16.3667 50.0632 15.55C49.2132 14.7334 48.5465 13.775 48.0632 12.675C47.5965 11.575 47.3632 10.3667 47.3632 9.05005C47.3632 7.73338 47.5965 6.52505 48.0632 5.42505C48.5465 4.32505 49.2132 3.36671 50.0632 2.55005C50.9299 1.73338 51.9382 1.10838 53.0882 0.675047C54.2382 0.225048 55.4965 4.85182e-05 56.8632 4.85182e-05C58.3799 4.85182e-05 59.7465 0.266715 60.9632 0.800049C62.1965 1.31671 63.2299 2.08338 64.0632 3.10005L61.4632 5.50005C60.8632 4.81671 60.1965 4.30838 59.4632 3.97505C58.7299 3.62505 57.9299 3.45005 57.0632 3.45005C56.2465 3.45005 55.4965 3.58338 54.8132 3.85005C54.1299 4.11671 53.5382 4.50005 53.0382 5.00005C52.5382 5.50005 52.1465 6.09171 51.8632 6.77505C51.5965 7.45838 51.4632 8.21672 51.4632 9.05005C51.4632 9.88338 51.5965 10.6417 51.8632 11.325C52.1465 12.0084 52.5382 12.6 53.0382 13.1C53.5382 13.6 54.1299 13.9834 54.8132 14.25C55.4965 14.5167 56.2465 14.65 57.0632 14.65C57.9299 14.65 58.7299 14.4834 59.4632 14.15C60.1965 13.8 60.8632 13.275 61.4632 12.575L64.0632 14.975C63.2299 15.9917 62.1965 16.7667 60.9632 17.3C59.7465 17.8334 58.3715 18.1 56.8382 18.1ZM70.4231 13.8L70.1981 9.12505L78.5731 0.300048H83.0731L75.5231 8.42505L73.2731 10.825L70.4231 13.8ZM66.7981 17.8V0.300048H70.8231V17.8H66.7981ZM78.7731 17.8L72.5481 10.175L75.1981 7.30005L83.4981 17.8H78.7731Z" fill="#101010"/>
</svg>
