<svg class="hidden">
    <symbol id="icon-like" viewBox="0 0 22 20" fill="none" xmlns="http://www.w3.org/2000/svg">
        <path
            d="M11.0009 1.65429C13.5848 -0.627558 17.5777 -0.551821 20.0669 1.90098C22.5551 4.35486 22.6409 8.2629 20.3265 10.812L10.9987 20L1.67308 10.812C-0.641281 8.2629 -0.554383 4.34837 1.93267 1.90098C4.42412 -0.548575 8.40935 -0.630804 11.0009 1.65429ZM18.5094 3.42979C16.8594 1.80469 14.1974 1.73869 12.4705 3.26425L11.002 4.56044L9.53243 3.26533C7.79996 1.73761 5.14351 1.80469 3.48914 3.43195C1.85017 5.04407 1.76767 7.62455 3.27795 9.32971L10.9998 16.937L18.7217 9.3308C20.233 7.62455 20.1505 5.04732 18.5094 3.42979Z"
            fill="currentColor"  />
    </symbol>
    <symbol id="icon-basket" viewBox="0 0 24 24" fill="none" xmlns="http://www.w3.org/2000/svg">
        <path
            d="M3.60005 5.08602L0 1.54536L1.57079 0L5.16972 3.54176H22.0898C22.2629 3.54175 22.4335 3.58153 22.5881 3.65793C22.7427 3.73432 22.8771 3.84522 22.9804 3.98177C23.0837 4.11832 23.1531 4.27674 23.1832 4.44439C23.2132 4.61203 23.203 4.78426 23.1533 4.94732L20.4891 13.6843C20.4205 13.9094 20.28 14.1067 20.0885 14.247C19.8969 14.3873 19.6644 14.463 19.4256 14.463H5.82024V16.6473H18.0313V18.8315H4.71014C4.41573 18.8315 4.13337 18.7164 3.92519 18.5116C3.717 18.3068 3.60005 18.029 3.60005 17.7394V5.08602ZM5.82024 5.72601V12.2788H18.5997L20.5979 5.72601H5.82024ZM5.26519 23.2C4.82357 23.2 4.40003 23.0274 4.08776 22.7202C3.77548 22.413 3.60005 21.9963 3.60005 21.5618C3.60005 21.1273 3.77548 20.7107 4.08776 20.4034C4.40003 20.0962 4.82357 19.9236 5.26519 19.9236C5.70682 19.9236 6.13035 20.0962 6.44263 20.4034C6.7549 20.7107 6.93034 21.1273 6.93034 21.5618C6.93034 21.9963 6.7549 22.413 6.44263 22.7202C6.13035 23.0274 5.70682 23.2 5.26519 23.2ZM18.5864 23.2C18.1447 23.2 17.7212 23.0274 17.4089 22.7202C17.0966 22.413 16.9212 21.9963 16.9212 21.5618C16.9212 21.1273 17.0966 20.7107 17.4089 20.4034C17.7212 20.0962 18.1447 19.9236 18.5864 19.9236C19.028 19.9236 19.4515 20.0962 19.7638 20.4034C20.0761 20.7107 20.2515 21.1273 20.2515 21.5618C20.2515 21.9963 20.0761 22.413 19.7638 22.7202C19.4515 23.0274 19.028 23.2 18.5864 23.2Z"
            fill="currentColor" />
    </symbol>
    <symbol id="icon-mobile" viewBox="0 0 15 21" fill="none" xmlns="http://www.w3.org/2000/svg">
        <path
            d="M2.14286 2.1V18.9H12.8571V2.1H2.14286ZM1.07143 0H13.9286C14.2127 0 14.4853 0.110625 14.6862 0.307538C14.8871 0.504451 15 0.771523 15 1.05V19.95C15 20.2285 14.8871 20.4955 14.6862 20.6925C14.4853 20.8894 14.2127 21 13.9286 21H1.07143C0.787268 21 0.514746 20.8894 0.313814 20.6925C0.112883 20.4955 0 20.2285 0 19.95V1.05C0 0.771523 0.112883 0.504451 0.313814 0.307538C0.514746 0.110625 0.787268 0 1.07143 0ZM7.5 15.75C7.78416 15.75 8.05668 15.8606 8.25761 16.0575C8.45855 16.2544 8.57143 16.5215 8.57143 16.8C8.57143 17.0785 8.45855 17.3455 8.25761 17.5425C8.05668 17.7394 7.78416 17.85 7.5 17.85C7.21584 17.85 6.94332 17.7394 6.74239 17.5425C6.54145 17.3455 6.42857 17.0785 6.42857 16.8C6.42857 16.5215 6.54145 16.2544 6.74239 16.0575C6.94332 15.8606 7.21584 15.75 7.5 15.75Z"
            fill="currentColor" />
    </symbol>
    <symbol id="icon-document" viewBox="0 0 15 17" fill="none" xmlns="http://www.w3.org/2000/svg">
        <path
            d="M14.1667 17H0.833333C0.61232 17 0.400358 16.9104 0.244078 16.751C0.0877973 16.5916 0 16.3754 0 16.15V0.85C0 0.624566 0.0877973 0.408365 0.244078 0.248959C0.400358 0.0895533 0.61232 0 0.833333 0H14.1667C14.3877 0 14.5996 0.0895533 14.7559 0.248959C14.9122 0.408365 15 0.624566 15 0.85V16.15C15 16.3754 14.9122 16.5916 14.7559 16.751C14.5996 16.9104 14.3877 17 14.1667 17ZM13.3333 15.3V1.7H1.66667V15.3H13.3333ZM3.33333 3.4H6.66667V6.8H3.33333V3.4ZM3.33333 8.5H11.6667V10.2H3.33333V8.5ZM3.33333 11.9H11.6667V13.6H3.33333V11.9ZM8.33333 4.25H11.6667V5.95H8.33333V4.25Z"
            fill="currentColor" />
    </symbol>
    <symbol id="icon-phone" viewBox="0 0 15 15" fill="currentColor" xmlns="http://www.w3.org/2000/svg">
        <path
            d="M5.305 6.40167C6.08695 7.7754 7.2246 8.91305 8.59833 9.695L9.335 8.66333C9.45346 8.49745 9.62862 8.38073 9.82734 8.33528C10.026 8.28982 10.2345 8.31878 10.4133 8.41667C11.5919 9.06077 12.8935 9.44815 14.2325 9.55333C14.4415 9.56989 14.6365 9.66461 14.7788 9.8186C14.921 9.97259 15 10.1745 15 10.3842V14.1025C15 14.3088 14.9235 14.5078 14.7853 14.661C14.6471 14.8142 14.4569 14.9106 14.2517 14.9317C13.81 14.9775 13.365 15 12.9167 15C5.78333 15 0 9.21667 0 2.08333C0 1.635 0.0225 1.19 0.0683333 0.748333C0.0893788 0.543081 0.18582 0.352934 0.338991 0.214695C0.492163 0.076456 0.691172 -4.44648e-05 0.8975 1.93894e-08H4.61583C4.82547 -2.62654e-05 5.02741 0.0789596 5.1814 0.221209C5.33539 0.363458 5.43011 0.55852 5.44667 0.7675C5.55185 2.10649 5.93923 3.40807 6.58333 4.58667C6.68122 4.76547 6.71018 4.97395 6.66472 5.17266C6.61927 5.37137 6.50255 5.54654 6.33667 5.665L5.305 6.40167ZM3.20333 5.85417L4.78667 4.72333C4.33732 3.75341 4.02946 2.72403 3.8725 1.66667H1.675C1.67 1.805 1.6675 1.94417 1.6675 2.08333C1.66667 8.29667 6.70333 13.3333 12.9167 13.3333C13.0558 13.3333 13.195 13.3308 13.3333 13.325V11.1275C12.276 10.9705 11.2466 10.6627 10.2767 10.2133L9.14583 11.7967C8.69055 11.6198 8.24834 11.4109 7.8225 11.1717L7.77417 11.1442C6.13965 10.2139 4.78607 8.86035 3.85583 7.22583L3.82833 7.1775C3.58909 6.75166 3.38024 6.30945 3.20333 5.85417Z"
            fill="currentColor" />
    </symbol>
    <symbol id="icon-phone-filling" viewBox="0 0 30 30" fill="none" xmlns="http://www.w3.org/2000/svg">
        <path d="M29.865 23.9131L29.7157 23.4631C29.3621 22.4117 28.2028 21.3152 27.1379 21.0263L23.1966 19.9494C22.1278 19.6586 20.6031 20.0496 19.8211 20.8317L18.3947 22.2584C13.2107 20.8573 9.14559 16.7914 7.74667 11.6075L9.17312 10.1807C9.95513 9.39859 10.3461 7.87567 10.0553 6.80664L8.98055 2.86261C8.68976 1.79553 7.59144 0.63614 6.54229 0.286316L6.09237 0.135017C5.0412 -0.214807 3.54207 0.138979 2.76013 0.921068L0.626358 3.05718C0.245162 3.43643 0.00153107 4.52118 0.00153107 4.52514C-0.0730986 11.3009 2.58326 17.829 7.37528 22.622C12.1555 27.4031 18.6579 30.0561 25.4128 29.9991C25.4482 29.9991 26.5642 29.7593 26.9454 29.3801L29.0791 27.2459C29.8611 26.4638 30.2147 24.9644 29.865 23.9131Z"
        fill="currentColor" />
    </symbol>
    <symbol id="icon-lang" viewBox="0 0 17 17" fill="none" xmlns="http://www.w3.org/2000/svg">
        <path
            d="M8.4915 0C3.7995 0 0 3.808 0 8.5C0 13.192 3.7995 17 8.4915 17C13.192 17 17 13.192 17 8.5C17 3.808 13.192 0 8.4915 0ZM14.382 5.1H11.8745C11.6025 4.0375 11.2115 3.0175 10.7015 2.074C12.2655 2.6095 13.566 3.6975 14.382 5.1ZM8.5 1.734C9.2055 2.754 9.758 3.8845 10.1235 5.1H6.8765C7.242 3.8845 7.7945 2.754 8.5 1.734ZM1.921 10.2C1.785 9.656 1.7 9.0865 1.7 8.5C1.7 7.9135 1.785 7.344 1.921 6.8H4.794C4.726 7.361 4.675 7.922 4.675 8.5C4.675 9.078 4.726 9.639 4.794 10.2H1.921ZM2.618 11.9H5.1255C5.3975 12.9625 5.7885 13.9825 6.2985 14.926C4.7345 14.3905 3.434 13.311 2.618 11.9ZM5.1255 5.1H2.618C3.434 3.689 4.7345 2.6095 6.2985 2.074C5.7885 3.0175 5.3975 4.0375 5.1255 5.1ZM8.5 15.266C7.7945 14.246 7.242 13.1155 6.8765 11.9H10.1235C9.758 13.1155 9.2055 14.246 8.5 15.266ZM10.489 10.2H6.511C6.4345 9.639 6.375 9.078 6.375 8.5C6.375 7.922 6.4345 7.3525 6.511 6.8H10.489C10.5655 7.3525 10.625 7.922 10.625 8.5C10.625 9.078 10.5655 9.639 10.489 10.2ZM10.7015 14.926C11.2115 13.9825 11.6025 12.9625 11.8745 11.9H14.382C13.566 13.3025 12.2655 14.3905 10.7015 14.926ZM12.206 10.2C12.274 9.639 12.325 9.078 12.325 8.5C12.325 7.922 12.274 7.361 12.206 6.8H15.079C15.215 7.344 15.3 7.9135 15.3 8.5C15.3 9.0865 15.215 9.656 15.079 10.2H12.206Z"
            fill="currentColor" />
    </symbol>
    <symbol id="icon-star" viewBox="0 0 24 22" fill="none" xmlns="http://www.w3.org/2000/svg">
        <path d="M11.6661 17.6026L4.45543 21.9608L6.41572 13.8272L0 8.38856L8.42139 7.72087L11.6661 0L14.9107 7.72087L23.3333 8.38856L16.9164 13.8272L18.8767 21.9608L11.6661 17.6026Z" fill="#FFCE7F" />
    </symbol>
    <symbol id="icon-vk" viewBox="0 0 31 21" fill="none" xmlns="http://www.w3.org/2000/svg">
        <path d="M0 2.83953C0 1.80142 0.575033 1.24166 1.7251 1.16024L6.15682 1.19077C6.45425 1.19077 6.65254 1.34343 6.75168 1.64876C7.20774 3.17538 7.71833 4.49337 8.28345 5.60272C8.84857 6.71207 9.58719 7.98935 10.4993 9.43456C10.5786 9.61775 10.7075 9.70935 10.886 9.70935C11.0248 9.70935 11.1338 9.63811 11.2131 9.49562L11.3024 9.15976L11.3321 3.87763C11.3321 3.51124 11.2478 3.26698 11.0793 3.14485C10.9108 3.02272 10.5985 2.93112 10.1424 2.87006C9.78547 2.80899 9.60702 2.58509 9.60702 2.19834C9.60702 2.11692 9.61693 2.05586 9.63676 2.01515C10.0532 0.692071 11.2429 0.0305325 13.2059 0.0305325L14.8715 0C15.625 0 16.2496 0.193373 16.7454 0.580118C17.2411 0.966864 17.4889 1.57751 17.4889 2.41207V9.34296C17.6277 9.44473 17.7566 9.49562 17.8756 9.49562C18.173 9.49562 18.4308 9.31243 18.6489 8.94604C20.8301 5.81136 22.0099 3.71479 22.1883 2.65633C22.1883 2.63598 22.2082 2.58509 22.2478 2.50367C22.3866 2.19834 22.6147 1.93373 22.9319 1.70982C23.2492 1.48592 23.5268 1.33325 23.7647 1.25183C23.844 1.21112 23.9333 1.19077 24.0324 1.19077H28.6426L28.94 1.2213C29.3366 1.2213 29.6439 1.41467 29.8621 1.80142C29.9414 1.92355 29.9959 2.05586 30.0256 2.19834C30.0554 2.34083 30.0752 2.48331 30.0851 2.6258C30.095 2.76828 30.1 2.8497 30.1 2.87006V3.08379C29.9612 3.91834 29.6092 4.80888 29.0441 5.75538C28.479 6.70189 27.7602 7.72473 26.8877 8.8239C26.0153 9.92308 25.47 10.6457 25.2519 10.9917C25.0734 11.236 24.9842 11.4599 24.9842 11.6634C24.9842 11.8263 25.0635 12.0095 25.2221 12.213L29.5646 17.831C29.8026 18.1567 29.9215 18.5129 29.9215 18.8996C29.9215 19.3678 29.7431 19.7546 29.3862 20.0599C29.0292 20.3652 28.6029 20.5382 28.1072 20.5789L27.6016 20.6095H23.0806C23.0608 20.6095 23.0211 20.6146 22.9617 20.6247C22.9022 20.6349 22.8625 20.64 22.8427 20.64C22.4065 20.64 22 20.4466 21.6232 20.0599C21.4844 19.897 20.5525 18.6961 18.8274 16.457C18.7282 16.3146 18.5894 16.1822 18.411 16.0601C18.3317 16.3858 18.2276 16.854 18.0987 17.4646C17.9698 18.0753 17.8756 18.5129 17.8161 18.7775L17.7269 19.2966C17.5286 20.009 17.1122 20.4364 16.4777 20.5789L16.0613 20.6095H13.1464C11.5007 20.6095 9.85983 19.836 8.22396 18.289C6.58809 16.742 5.11581 14.7421 3.80711 12.2893C2.49842 9.83657 1.27895 6.98177 0.148715 3.72497C0.0495718 3.46035 0 3.16521 0 2.83953ZM17.8756 10.7475C17.4592 10.7475 17.0824 10.6304 16.7454 10.3963C16.4083 10.1622 16.2397 9.84166 16.2397 9.43456V2.41207C16.2397 2.00497 16.1406 1.71491 15.9423 1.54189C15.744 1.36888 15.397 1.28237 14.9013 1.28237L13.2059 1.34343C12.3533 1.34343 11.7089 1.49609 11.2726 1.80142C12.1451 2.22888 12.5813 2.92095 12.5813 3.87763V9.25136C12.5417 9.76024 12.3434 10.1826 11.9865 10.5185C11.6295 10.8543 11.233 11.0222 10.7967 11.0222C10.2019 11.0222 9.74582 10.7271 9.42856 10.1368C7.88192 7.73491 6.73185 5.45515 5.97836 3.29751L5.71067 2.50367L1.75484 2.47314C1.49707 2.47314 1.35331 2.4884 1.32357 2.51893C1.29382 2.54947 1.27895 2.63598 1.27895 2.77846C1.27895 2.96166 1.29878 3.15503 1.33844 3.35858L1.96304 5.0684C3.62866 9.48544 5.43803 12.9662 7.39116 15.5105C9.34429 18.0549 11.2627 19.3271 13.1464 19.3271H16.1208C16.2397 19.3271 16.329 19.2915 16.3884 19.2202C16.4479 19.149 16.4975 19.0116 16.5372 18.808L16.5966 18.5027L17.1618 15.8159C17.3204 15.4495 17.4592 15.2052 17.5782 15.0831C17.7963 14.8592 18.0541 14.7472 18.3515 14.7472C18.8274 14.7472 19.3132 15.0424 19.8089 15.6327L22.3371 18.9302C22.4957 19.1948 22.6642 19.3271 22.8427 19.3271H27.7503C28.3452 19.3271 28.6426 19.1744 28.6426 18.8691C28.6426 18.7673 28.6128 18.6656 28.5534 18.5638L24.2406 13.0374C23.9035 12.6099 23.735 12.152 23.735 11.6634C23.735 11.1749 23.8936 10.7067 24.2109 10.2589C24.4686 9.85183 24.9693 9.17503 25.7129 8.22852C26.4565 7.28201 27.1059 6.39657 27.6611 5.57219C28.2163 4.74781 28.5831 3.99976 28.7616 3.32805L28.8508 2.93112C28.831 2.89041 28.821 2.82426 28.821 2.73266C28.821 2.64106 28.8111 2.56473 28.7913 2.50367H24.1216C23.8242 2.6258 23.5863 2.80899 23.4078 3.05325L23.2293 3.63337C22.7336 5.03787 21.4348 7.20568 19.333 10.1368C18.9166 10.5439 18.4308 10.7475 17.8756 10.7475Z" 
        fill="currentColor" />
    </symbol>
    <symbol id="icon-instagram" viewBox="0 0 31 31" fill="none" xmlns="http://www.w3.org/2000/svg">
        <path d="M15.05 10.535C13.8525 10.535 12.7041 11.0107 11.8574 11.8574C11.0107 12.7041 10.535 13.8525 10.535 15.05C10.535 16.2475 11.0107 17.3959 11.8574 18.2426C12.7041 19.0893 13.8525 19.565 15.05 19.565C16.2475 19.565 17.3959 19.0893 18.2426 18.2426C19.0893 17.3959 19.565 16.2475 19.565 15.05C19.565 13.8525 19.0893 12.7041 18.2426 11.8574C17.3959 11.0107 16.2475 10.535 15.05 10.535ZM15.05 7.525C17.0458 7.525 18.9598 8.31781 20.371 9.72902C21.7822 11.1402 22.575 13.0542 22.575 15.05C22.575 17.0458 21.7822 18.9598 20.371 20.371C18.9598 21.7822 17.0458 22.575 15.05 22.575C13.0542 22.575 11.1402 21.7822 9.72902 20.371C8.31781 18.9598 7.525 17.0458 7.525 15.05C7.525 13.0542 8.31781 11.1402 9.72902 9.72902C11.1402 8.31781 13.0542 7.525 15.05 7.525ZM24.8325 7.14875C24.8325 7.64769 24.6343 8.12619 24.2815 8.47899C23.9287 8.8318 23.4502 9.03 22.9513 9.03C22.4523 9.03 21.9738 8.8318 21.621 8.47899C21.2682 8.12619 21.07 7.64769 21.07 7.14875C21.07 6.64981 21.2682 6.17131 21.621 5.81851C21.9738 5.4657 22.4523 5.2675 22.9513 5.2675C23.4502 5.2675 23.9287 5.4657 24.2815 5.81851C24.6343 6.17131 24.8325 6.64981 24.8325 7.14875ZM15.05 3.01C11.3266 3.01 10.7186 3.02054 8.98635 3.09729C7.80644 3.15298 7.0148 3.311 6.28036 3.59695C5.62719 3.84979 5.15613 4.1523 4.65496 4.65496C4.18391 5.11008 3.82173 5.6657 3.59544 6.28036C3.30949 7.01781 3.15147 7.80794 3.09729 8.98635C3.01903 10.6479 3.01 11.2288 3.01 15.05C3.01 18.7734 3.02054 19.3814 3.09729 21.1136C3.15298 22.2921 3.311 23.0852 3.59544 23.8181C3.85129 24.4728 4.1523 24.9439 4.65196 25.4435C5.15914 25.9492 5.63021 26.2517 6.27736 26.5015C7.02082 26.789 7.81246 26.9485 8.98635 27.0027C10.6479 27.081 11.2288 27.09 15.05 27.09C18.7734 27.09 19.3814 27.0795 21.1136 27.0027C22.2906 26.947 23.0837 26.789 23.8181 26.5046C24.4698 26.2502 24.9439 25.9477 25.4435 25.448C25.9507 24.9409 26.2532 24.4698 26.5031 23.8226C26.789 23.0807 26.9485 22.2875 27.0027 21.1136C27.081 19.4521 27.09 18.8712 27.09 15.05C27.09 11.3266 27.0795 10.7186 27.0027 8.98635C26.947 7.80945 26.789 7.0148 26.5031 6.28036C26.2762 5.66633 25.9147 5.11092 25.445 4.65496C24.9901 4.18367 24.4344 3.82145 23.8196 3.59544C23.0822 3.30949 22.2906 3.15147 21.1136 3.09729C19.4521 3.01903 18.8712 3.01 15.05 3.01ZM15.05 0C19.1391 0 19.6493 0.0150499 21.2536 0.0902999C22.8564 0.16555 23.9476 0.416885 24.9077 0.790125C25.901 1.1724 26.7378 1.69011 27.5746 2.52539C28.3399 3.27773 28.9321 4.1878 29.3099 5.19225C29.6816 6.15093 29.9345 7.24356 30.0097 8.84639C30.0804 10.4507 30.1 10.9609 30.1 15.05C30.1 19.1391 30.085 19.6493 30.0097 21.2536C29.9345 22.8564 29.6816 23.9476 29.3099 24.9077C28.9331 25.9128 28.3408 26.823 27.5746 27.5746C26.8221 28.3396 25.9121 28.9317 24.9077 29.3099C23.9491 29.6816 22.8564 29.9345 21.2536 30.0097C19.6493 30.0804 19.1391 30.1 15.05 30.1C10.9609 30.1 10.4507 30.085 8.84639 30.0097C7.24356 29.9345 6.15244 29.6816 5.19225 29.3099C4.1874 28.9328 3.27718 28.3406 2.52539 27.5746C1.75996 26.8224 1.16778 25.9123 0.790125 24.9077C0.416885 23.9491 0.16555 22.8564 0.0902999 21.2536C0.0195649 19.6493 0 19.1391 0 15.05C0 10.9609 0.0150499 10.4507 0.0902999 8.84639C0.16555 7.24206 0.416885 6.15244 0.790125 5.19225C1.16673 4.18718 1.75905 3.27687 2.52539 2.52539C3.27739 1.75969 4.18755 1.16747 5.19225 0.790125C6.15244 0.416885 7.24206 0.16555 8.84639 0.0902999C10.4507 0.0195649 10.9609 0 15.05 0Z" 
        fill="currentColor" />
    </symbol>
    <symbol id="icon-telegram" viewBox="0 0 31 31" fill="none" xmlns="http://www.w3.org/2000/svg">
        <path d="M15.05 27.09C18.2432 27.09 21.3056 25.8215 23.5636 23.5636C25.8215 21.3056 27.09 18.2432 27.09 15.05C27.09 11.8568 25.8215 8.79437 23.5636 6.53643C21.3056 4.2785 18.2432 3.01 15.05 3.01C11.8568 3.01 8.79437 4.2785 6.53643 6.53643C4.2785 8.79437 3.01 11.8568 3.01 15.05C3.01 18.2432 4.2785 21.3056 6.53643 23.5636C8.79437 25.8215 11.8568 27.09 15.05 27.09ZM15.05 30.1C6.73789 30.1 0 23.3621 0 15.05C0 6.73789 6.73789 0 15.05 0C23.3621 0 30.1 6.73789 30.1 15.05C30.1 23.3621 23.3621 30.1 15.05 30.1ZM10.3695 16.8109L6.60996 15.6385C5.79726 15.3901 5.79275 14.8303 6.79207 14.4284L21.4402 8.76964C22.2906 8.42348 22.7722 8.86144 22.4967 9.95858L20.003 21.7277C19.8284 22.566 19.3242 22.7661 18.6244 22.3794L14.7851 19.5379L12.9957 21.2656C12.8121 21.4432 12.6631 21.5952 12.3801 21.6329C12.0987 21.672 11.8669 21.5877 11.6969 21.1212L10.3875 16.8003L10.3695 16.8124V16.8109Z" 
        fill="currentColor" />
    </symbol>
    <symbol id="icon-whatsapp" viewBox="0 0 31 31" fill="none" xmlns="http://www.w3.org/2000/svg">
        <path d="M7.90578 24.8235L8.9954 25.4601C10.8329 26.5317 12.9228 27.0943 15.05 27.09C17.4313 27.09 19.7591 26.3838 21.7391 25.0609C23.719 23.7379 25.2622 21.8575 26.1735 19.6575C27.0848 17.4575 27.3232 15.0366 26.8587 12.7011C26.3941 10.3656 25.2474 8.22025 23.5636 6.53643C21.8797 4.85261 19.7344 3.70591 17.3989 3.24134C15.0634 2.77678 12.6425 3.01521 10.4425 3.92649C8.24248 4.83777 6.36209 6.38096 5.03912 8.36093C3.71615 10.3409 3.01002 12.6687 3.01002 15.05C3.01002 17.2112 3.5774 19.2836 4.64144 21.1061L5.27655 22.1957L4.29378 25.8092L7.90578 24.8235ZM0.00604013 30.1L2.0408 22.6231C0.700052 20.3248 -0.0043504 17.7108 2.02155e-05 15.05C2.02155e-05 6.73788 6.7379 0 15.05 0C23.3621 0 30.1 6.73788 30.1 15.05C30.1 23.3621 23.3621 30.1 15.05 30.1C12.3903 30.1043 9.77748 29.4004 7.47987 28.0607L0.00604013 30.1ZM9.61847 7.98853C9.82014 7.97348 10.0233 7.97348 10.225 7.98251C10.3063 7.98853 10.3875 7.99757 10.4688 8.0066C10.7081 8.03368 10.9715 8.17967 11.0603 8.38134C11.5087 9.39872 11.9452 10.4236 12.3666 11.4515C12.4599 11.6803 12.4042 11.9738 12.2266 12.2597C12.1045 12.4531 11.9724 12.64 11.8308 12.8196C11.6608 13.0378 11.295 13.4381 11.295 13.4381C11.295 13.4381 11.146 13.6157 11.2032 13.837C11.2243 13.9212 11.2935 14.0431 11.3567 14.1455L11.4455 14.2885C11.8308 14.9311 12.3485 15.5828 12.9806 16.1968C13.1612 16.3714 13.3373 16.5505 13.527 16.7175C14.2313 17.3391 15.0289 17.8463 15.8898 18.2225L15.8973 18.2255C16.0252 18.2812 16.09 18.3113 16.2766 18.3911C16.3699 18.4302 16.4662 18.4648 16.564 18.4904C16.6651 18.5162 16.7716 18.5113 16.8699 18.4765C16.9683 18.4417 17.054 18.3784 17.1164 18.2948C18.206 16.9749 18.3053 16.8891 18.3144 16.8891V16.8921C18.3901 16.8215 18.48 16.7679 18.5781 16.735C18.6762 16.702 18.7803 16.6904 18.8832 16.701C18.9735 16.707 19.0653 16.7235 19.1496 16.7612C19.9488 17.1269 21.2566 17.6973 21.2566 17.6973L22.1325 18.0901C22.28 18.1608 22.414 18.3279 22.4185 18.4889C22.4245 18.5897 22.4335 18.7523 22.3989 19.0503C22.3508 19.4401 22.2334 19.9081 22.116 20.1534C22.0356 20.3209 21.9289 20.4743 21.7999 20.608C21.6481 20.7674 21.4818 20.9125 21.3033 21.0414C21.2415 21.0878 21.1788 21.133 21.1152 21.1768C20.928 21.2956 20.7356 21.4061 20.5387 21.5079C20.1513 21.7138 19.7233 21.8319 19.2851 21.8541C19.0067 21.8691 18.7282 21.8902 18.4483 21.8752C18.4363 21.8752 17.5935 21.7442 17.5935 21.7442C15.4537 21.1814 13.4749 20.1271 11.8143 18.665C11.4741 18.3655 11.1596 18.0434 10.8375 17.7229C9.49807 16.3909 8.48671 14.9537 7.87267 13.5962C7.55838 12.9299 7.38861 12.2046 7.37452 11.4681C7.36831 10.5543 7.66701 9.6646 8.22334 8.93969C8.3332 8.79822 8.43704 8.65073 8.61614 8.48067C8.80727 8.30007 8.92767 8.20375 9.05861 8.13753C9.2327 8.05029 9.42261 7.9991 9.61696 7.98703L9.61847 7.98853Z" fill="#101010" />
    </symbol>
    <symbol id="icon-label" viewBox="0 0 21 22" fill="none" xmlns="http://www.w3.org/2000/svg">
        <path d="M10.4488 22L3.06035 15.5563C1.59907 14.2819 0.603926 12.6581 0.200766 10.8905C-0.202393 9.12277 0.00453577 7.29051 0.795385 5.62539C1.58624 3.96027 2.92549 2.53707 4.64378 1.53576C6.36208 0.534448 8.38224 0 10.4488 0C12.5154 0 14.5356 0.534448 16.2539 1.53576C17.9721 2.53707 19.3114 3.96027 20.1022 5.62539C20.8931 7.29051 21.1 9.12277 20.6969 10.8905C20.2937 12.6581 19.2986 14.2819 17.8373 15.5563L10.4488 22ZM16.1957 14.1246C17.3321 13.1333 18.1061 11.8704 18.4196 10.4956C18.7331 9.12075 18.5721 7.69569 17.957 6.40064C17.3418 5.10558 16.3002 3.99868 14.9638 3.21991C13.6273 2.44114 12.0561 2.02548 10.4488 2.02548C8.84151 2.02548 7.2703 2.44114 5.93387 3.21991C4.59743 3.99868 3.55579 5.10558 2.94066 6.40064C2.32554 7.69569 2.16455 9.12075 2.47806 10.4956C2.79157 11.8704 3.56549 13.1333 4.70197 14.1246L10.4488 19.1366L16.1957 14.1246ZM10.4488 11.1377C9.833 11.1377 9.2424 10.9243 8.80694 10.5445C8.37149 10.1648 8.12686 9.64969 8.12686 9.11262C8.12686 8.57554 8.37149 8.06047 8.80694 7.6807C9.2424 7.30093 9.833 7.08757 10.4488 7.08757C11.0646 7.08757 11.6552 7.30093 12.0907 7.6807C12.5261 8.06047 12.7708 8.57554 12.7708 9.11262C12.7708 9.64969 12.5261 10.1648 12.0907 10.5445C11.6552 10.9243 11.0646 11.1377 10.4488 11.1377Z" 
        fill="currentColor" />
    </symbol>
    <symbol id="icon-minus" viewBox="0 0 36 30" fill="none" xmlns="http://www.w3.org/2000/svg">
        <ellipse cx="17.5833" cy="15" rx="17.5833" ry="15" fill="currentColor" />
        <path d="M9.37793 14H25.789V16H9.37793V14Z" fill="white" />
    </symbol>
    <symbol id="icon-plus" viewBox="0 0 36 30" fill="none" xmlns="http://www.w3.org/2000/svg">
        <ellipse cx="17.5833" cy="15" rx="17.5833" ry="15" fill="currentColor" />
        <path d="M16.4113 14V8H18.7557V14H25.789V16H18.7557V22H16.4113V16H9.37793V14H16.4113Z" fill="white" />
    </symbol>
    <symbol id="icon-trash-can" viewBox="0 0 20 17" fill="none" xmlns="http://www.w3.org/2000/svg">
        <path d="M14.9458 3.4H19.9278V5.1H17.935V16.15C17.935 16.3754 17.83 16.5916 17.6432 16.751C17.4563 16.9104 17.2029 17 16.9386 17H2.98917C2.72491 17 2.47147 16.9104 2.28461 16.751C2.09775 16.5916 1.99278 16.3754 1.99278 16.15V5.1H0V3.4H4.98194V0.85C4.98194 0.624566 5.08692 0.408365 5.27378 0.248959C5.46064 0.0895533 5.71407 0 5.97833 0H13.9494C14.2137 0 14.4671 0.0895533 14.654 0.248959C14.8409 0.408365 14.9458 0.624566 14.9458 0.85V3.4ZM15.9422 5.1H3.98556V15.3H15.9422V5.1ZM11.3728 10.2L13.1344 11.7028L11.7255 12.9047L9.96389 11.4019L8.20227 12.9047L6.79338 11.7028L8.555 10.2L6.79338 8.6972L8.20227 7.4953L9.96389 8.9981L11.7255 7.4953L13.1344 8.6972L11.3728 10.2ZM6.97472 1.7V3.4H12.9531V1.7H6.97472Z" fill="currentColor" />
    </symbol>
    <symbol id="icon-truck" viewBox="0 0 22 13" fill="none" xmlns="http://www.w3.org/2000/svg">
        <path d="M7.63916 10.5584C7.52514 11.236 7.12625 11.856 6.51576 12.3045C5.90526 12.7531 5.12415 13 4.31591 13C3.50767 13 2.72656 12.7531 2.11606 12.3045C1.50557 11.856 1.10668 11.236 0.992659 10.5584H0V0.812182C0 0.596778 0.101047 0.390196 0.280911 0.237883C0.460776 0.0855691 0.704724 0 0.959091 0H14.3864C14.6407 0 14.8847 0.0855691 15.0645 0.237883C15.2444 0.390196 15.3455 0.596778 15.3455 0.812182V2.43655H18.2227L21.1 5.73076V10.5584H19.1483C19.0342 11.236 18.6353 11.856 18.0248 12.3045C17.4144 12.7531 16.6332 13 15.825 13C15.0168 13 14.2357 12.7531 13.6252 12.3045C13.0147 11.856 12.6158 11.236 12.5017 10.5584H7.63916ZM13.4273 1.62436H1.91818V8.16243C2.2966 7.83528 2.76276 7.59039 3.27698 7.44862C3.79119 7.30684 4.33825 7.27236 4.87158 7.34813C5.40492 7.42389 5.90874 7.60766 6.34018 7.88377C6.77161 8.15989 7.11788 8.52019 7.34951 8.934H12.7914C12.9525 8.6473 13.1683 8.38659 13.4273 8.16243V1.62436ZM15.3455 6.49746H19.1818V6.26599L17.256 4.06091H15.3455V6.49746ZM15.825 11.3705C16.2067 11.3705 16.5727 11.2422 16.8426 11.0136C17.1125 10.7851 17.2641 10.4751 17.2641 10.1519C17.2641 9.82866 17.1125 9.51868 16.8426 9.29013C16.5727 9.06159 16.2067 8.93319 15.825 8.93319C15.4433 8.93319 15.0773 9.06159 14.8074 9.29013C14.5375 9.51868 14.3859 9.82866 14.3859 10.1519C14.3859 10.4751 14.5375 10.7851 14.8074 11.0136C15.0773 11.2422 15.4433 11.3705 15.825 11.3705ZM5.75455 10.1523C5.75455 9.99229 5.71733 9.83387 5.64504 9.68606C5.57274 9.53825 5.46677 9.40395 5.33318 9.29083C5.19959 9.1777 5.041 9.08796 4.86645 9.02674C4.69191 8.96552 4.50483 8.934 4.31591 8.934C4.12698 8.934 3.93991 8.96552 3.76537 9.02674C3.59082 9.08796 3.43223 9.1777 3.29864 9.29083C3.16505 9.40395 3.05908 9.53825 2.98678 9.68606C2.91448 9.83387 2.87727 9.99229 2.87727 10.1523C2.87727 10.4754 3.02884 10.7853 3.29864 11.0137C3.56844 11.2422 3.93436 11.3705 4.31591 11.3705C4.69746 11.3705 5.06338 11.2422 5.33318 11.0137C5.60298 10.7853 5.75455 10.4754 5.75455 10.1523Z" fill="currentColor" />
    </symbol> 
    <symbol id="icon-arrow" viewBox="0 0 10 7" fill="none" xmlns="http://www.w3.org/2000/svg">
        <path d="M5 7L0 1.74969L1.66745 0L5 3.50062L8.33255 0L10 1.74969L5 7Z" fill="#1C1C27"/>
    </symbol>
    <symbol id="icon-menu" viewBox="0 0 20 18" fill="none" xmlns="http://www.w3.org/2000/svg">
        <path d="M0 0H20V2.25H0V0ZM0 7.875H20V10.125H0V7.875ZM0 15.75H20V18H0V15.75Z" fill="currentColor"/>
    </symbol>  
</svg>